<?xml version="1.0" standalone="no"?>
<!DOCTYPE svg PUBLIC "-//W3C//DTD SVG 20010904//EN"
 "http://www.w3.org/TR/2001/REC-SVG-20010904/DTD/svg10.dtd">
<svg version="1.0" xmlns="http://www.w3.org/2000/svg"
 width="690.000000pt" height="690.000000pt" viewBox="0 0 690.000000 690.000000"
 preserveAspectRatio="xMidYMid meet">
<metadata>
Created by potrace 1.11, written by Peter Selinger 2001-2013
</metadata>
<g transform="translate(0.000000,690.000000) scale(0.100000,-0.100000)"
fill="#000000" stroke="none">
<path d="M3170 6794 c-841 -75 -1556 -411 -2131 -1001 -498 -511 -804 -1133
-910 -1853 -27 -177 -36 -564 -20 -751 73 -801 405 -1506 975 -2074 503 -500
1131 -815 1842 -925 799 -123 1654 65 2324 511 847 565 1377 1444 1481 2454
17 165 14 525 -6 690 -84 717 -371 1351 -843 1865 -549 599 -1224 951 -2037
1065 -106 15 -573 28 -675 19z m640 -169 c974 -123 1828 -682 2337 -1530 214
-356 353 -752 419 -1195 24 -165 30 -562 10 -749 -76 -713 -380 -1363 -881
-1880 -491 -507 -1101 -819 -1825 -934 -117 -19 -176 -22 -450 -21 -272 0
-334 3 -450 21 -763 120 -1441 487 -1923 1040 -630 724 -900 1639 -761 2578
126 853 621 1638 1344 2137 462 318 1000 506 1585 552 104 8 475 -4 595 -19z"/>
<path d="M3210 6253 c-121 -9 -347 -48 -484 -82 -649 -166 -1228 -574 -1605
-1131 -244 -360 -393 -746 -458 -1185 -22 -152 -25 -581 -5 -725 92 -647 379
-1219 832 -1654 238 -228 498 -405 785 -534 875 -393 1882 -313 2675 213 163
108 268 193 413 335 380 369 635 815 761 1330 61 246 71 342 71 665 0 272 -2
300 -28 448 -52 296 -137 550 -270 810 -478 938 -1451 1528 -2497 1515 -80 -1
-165 -3 -190 -5z m1339 -398 c258 -129 526 -330 751 -561 399 -409 639 -889
727 -1454 25 -164 25 -566 -1 -735 -22 -148 -83 -388 -129 -515 -56 -154 -113
-275 -128 -273 -105 15 -801 181 -962 229 -178 52 -359 143 -721 360 -112 68
-142 81 -157 73 -14 -7 -19 -6 -19 4 0 7 113 600 250 1317 138 718 263 1369
278 1447 15 79 30 143 35 143 4 0 39 -16 76 -35z m-2319 -21 c0 -3 160 -649
356 -1436 195 -787 353 -1433 350 -1436 -3 -2 -12 1 -20 7 -13 11 -39 -1 -148
-67 -311 -186 -512 -292 -650 -340 -129 -46 -981 -252 -1040 -252 -30 0 -151
307 -204 514 -185 727 -55 1495 363 2129 137 208 316 411 498 564 182 152 495
353 495 317z m2000 -3169 l270 -226 23 27 22 26 177 -92 c97 -50 178 -87 181
-83 2 4 7 25 11 46 4 20 13 37 20 37 7 0 184 -36 392 -81 208 -44 387 -81 396
-82 15 -1 13 -9 -14 -57 -425 -757 -1239 -1269 -2107 -1326 -56 -4 -101 -4
-101 0 0 6 95 502 336 1756 25 129 47 243 50 252 4 15 22 22 62 27 7 0 134
-100 282 -224z m-1264 201 c1 0 114 -453 251 -1006 l249 -1005 -95 -3 c-231
-8 -558 51 -836 149 -152 54 -420 188 -550 275 -284 190 -534 432 -718 695
-60 87 -157 243 -157 254 0 3 8 5 18 5 9 0 186 36 392 80 206 44 382 81 390
83 10 1 17 -12 23 -45 l9 -47 181 91 181 90 21 -25 20 -26 270 225 270 225 40
-7 c22 -3 41 -7 41 -8z"/>
<path d="M5170 3925 l-385 -295 -3 285 -2 285 -160 0 -160 0 0 -570 0 -570
153 0 154 0 7 182 7 183 41 36 42 36 290 -193 291 -194 102 108 c56 59 102
109 102 112 0 3 -117 83 -260 178 -143 95 -257 177 -254 182 4 7 479 382 508
401 6 4 -11 34 -38 68 -26 34 -48 61 -49 61 -1 -1 -174 -133 -386 -295z"/>
<path d="M1916 3925 c-213 -162 -389 -295 -392 -295 -3 0 -4 128 -2 285 l3
285 -157 0 -158 0 0 -570 0 -571 153 3 152 3 3 175 2 175 37 37 c21 21 43 38
50 38 7 0 138 -83 291 -184 153 -102 282 -186 287 -188 11 -3 205 195 205 210
0 5 -117 87 -260 182 -143 95 -260 174 -260 175 0 1 117 93 260 205 143 112
260 206 260 210 0 4 -20 32 -44 63 l-44 56 -386 -294z"/>
<path d="M3890 2025 l0 -45 132 0 133 0 -89 -89 -88 -88 16 -31 c14 -28 19
-30 42 -22 127 49 242 -84 151 -175 -63 -63 -158 -56 -230 16 l-39 39 -35 -21
c-37 -23 -37 -22 16 -83 78 -88 241 -102 339 -29 64 48 91 149 58 226 -17 41
-74 91 -121 107 l-37 12 76 77 c67 68 76 81 76 114 l0 37 -200 0 -200 0 0 -45z"/>
<path d="M4536 2043 c-3 -16 -12 -71 -21 -123 -8 -52 -17 -105 -20 -116 -7
-30 39 -49 79 -34 41 15 142 12 176 -5 38 -19 60 -63 60 -116 0 -33 -6 -47
-33 -74 -63 -63 -160 -56 -230 17 l-37 39 -30 -18 c-37 -22 -37 -30 0 -75 44
-54 120 -88 194 -88 138 1 226 81 226 204 0 70 -12 102 -58 149 -57 59 -166
82 -244 52 -16 -6 -16 -2 0 57 l17 63 130 5 c127 5 129 5 136 30 18 63 26 60
-165 60 l-174 0 -6 -27z"/>
<path d="M2573 2066 c-84 -27 -135 -85 -149 -173 -13 -83 37 -172 119 -215 33
-16 53 -19 106 -15 36 3 77 8 90 12 23 8 23 7 -10 -55 -38 -72 -89 -114 -149
-124 -22 -3 -40 -8 -40 -10 0 -2 7 -20 15 -40 14 -33 18 -35 48 -30 146 26
226 104 258 256 16 73 7 224 -15 268 -31 60 -86 109 -140 125 -59 18 -78 18
-133 1z m135 -96 c35 -22 71 -87 72 -131 0 -28 -28 -58 -77 -83 -90 -45 -186
12 -186 112 0 99 104 155 191 102z"/>
<path d="M2126 1996 l-59 -53 23 -31 c28 -37 28 -37 52 -15 17 16 18 8 18
-215 l0 -232 45 0 45 0 0 300 0 300 -32 0 c-25 -1 -47 -13 -92 -54z"/>
</g>
</svg>
