<?xml version="1.0" standalone="no"?>
<!DOCTYPE svg PUBLIC "-//W3C//DTD SVG 20010904//EN"
 "http://www.w3.org/TR/2001/REC-SVG-20010904/DTD/svg10.dtd">
<svg version="1.0" xmlns="http://www.w3.org/2000/svg"
 width="874.000000pt" height="874.000000pt" viewBox="0 0 874.000000 874.000000"
 preserveAspectRatio="xMidYMid meet">
<metadata>
Created by potrace 1.11, written by Peter Selinger 2001-2013
</metadata>
<g transform="translate(0.000000,874.000000) scale(0.100000,-0.100000)"
fill="#000000" stroke="none">
<path d="M2988 8029 c-7 -4 -2 -39 12 -100 12 -52 24 -103 25 -114 2 -11 13
-60 25 -110 12 -49 24 -101 26 -114 3 -14 7 -28 9 -32 3 -4 7 -24 11 -45 3
-22 10 -57 15 -79 15 -61 29 -117 34 -145 6 -26 31 -136 42 -180 3 -14 7 -32
9 -40 1 -8 5 -26 9 -40 3 -14 8 -36 11 -50 3 -14 14 -61 24 -105 33 -137 42
-179 45 -200 2 -11 11 -49 20 -85 20 -77 24 -96 30 -132 2 -15 6 -36 10 -47 3
-11 8 -28 10 -38 2 -10 9 -40 15 -68 6 -27 14 -61 16 -75 3 -14 12 -51 20 -83
8 -32 19 -77 23 -100 5 -23 19 -85 31 -137 12 -52 23 -102 25 -110 2 -8 8 -35
15 -60 6 -25 12 -54 14 -65 2 -11 23 -103 46 -205 74 -322 98 -427 106 -470 3
-14 9 -40 15 -58 6 -18 12 -43 13 -55 2 -12 6 -31 9 -42 3 -11 8 -31 11 -45 3
-14 8 -36 11 -50 4 -14 7 -33 7 -42 -1 -10 2 -18 6 -18 4 0 8 -13 9 -29 2 -27
32 -163 54 -246 6 -22 13 -51 16 -65 2 -14 13 -61 23 -105 10 -44 21 -91 24
-105 2 -14 9 -45 15 -70 7 -25 13 -54 15 -65 1 -11 6 -29 9 -40 3 -11 8 -31
11 -45 2 -14 12 -56 21 -95 9 -38 19 -81 21 -95 3 -14 11 -50 19 -80 8 -30 16
-68 19 -85 3 -16 20 -86 37 -155 16 -69 32 -136 33 -150 2 -14 9 -45 16 -70
14 -51 20 -76 24 -105 2 -11 23 -101 46 -200 23 -99 44 -191 46 -205 3 -14 10
-43 15 -65 10 -43 12 -48 33 -145 8 -36 19 -81 24 -100 5 -19 9 -38 10 -42 1
-5 2 -9 3 -10 2 -6 7 -35 12 -63 3 -16 8 -37 11 -45 3 -8 8 -27 11 -42 12 -65
17 -85 27 -123 5 -22 12 -49 15 -60 2 -11 6 -27 8 -35 2 -8 4 -24 5 -35 2 -20
44 136 55 205 4 19 13 60 20 90 8 30 35 147 60 260 26 113 48 213 51 222 2 10
6 28 9 40 2 13 9 41 14 63 15 61 24 99 27 114 1 7 8 34 14 60 6 25 12 56 15
69 2 13 6 31 9 40 3 9 8 32 11 51 3 19 8 37 10 41 4 6 7 20 21 88 3 15 12 56
20 92 9 36 18 76 20 90 3 14 10 43 16 65 5 22 12 51 14 65 3 14 7 33 10 42 3
9 7 25 9 35 7 33 36 168 40 183 2 8 16 67 30 130 15 63 29 124 31 135 3 11 7
31 10 45 6 31 35 158 50 215 20 82 25 104 29 125 2 14 11 54 20 90 9 36 18 75
20 88 11 49 37 169 51 227 5 20 9 39 18 80 9 39 37 161 51 220 8 33 17 71 19
85 2 14 5 25 6 25 2 0 5 15 13 60 3 17 8 40 11 53 9 36 13 52 36 152 12 52 23
104 26 115 3 11 7 31 10 45 3 14 9 41 14 60 5 19 11 46 14 60 2 14 9 45 15 70
21 84 35 153 33 157 -1 2 5 21 13 43 8 22 12 40 10 40 -2 0 2 21 10 48 8 26
17 63 20 82 3 19 12 60 20 90 8 30 16 67 19 83 12 59 18 83 47 210 17 72 32
134 35 138 2 4 6 20 8 36 4 24 14 77 30 148 2 11 12 52 21 90 9 39 18 79 20
90 3 11 9 38 14 60 6 22 26 110 46 195 47 204 46 203 49 220 1 8 5 24 9 35 3
11 8 31 11 45 4 21 26 119 41 185 24 100 27 125 19 126 -65 4 -2769 2 -2776
-2z"/>
<path d="M5886 7321 c-3 -4 -8 -23 -11 -42 -3 -19 -10 -52 -16 -74 -5 -22 -12
-51 -15 -65 -3 -14 -12 -54 -20 -90 -9 -36 -17 -74 -20 -85 -2 -11 -7 -33 -11
-50 -4 -16 -7 -32 -8 -35 -1 -3 -4 -18 -8 -35 -4 -16 -9 -39 -12 -50 -19 -91
-56 -248 -59 -254 -3 -4 35 -32 84 -62 50 -30 90 -57 90 -61 0 -5 6 -8 13 -8
7 0 22 -8 33 -18 10 -10 35 -29 54 -42 19 -13 40 -29 46 -35 7 -5 31 -26 55
-45 157 -125 349 -331 480 -511 59 -82 159 -243 159 -256 0 -6 7 -16 15 -23 8
-7 13 -16 10 -20 -3 -5 0 -12 6 -15 13 -8 82 -154 115 -245 14 -36 29 -74 34
-85 8 -18 37 -105 60 -180 34 -112 72 -304 86 -430 22 -213 22 -426 -1 -630
-10 -85 -12 -101 -20 -133 -4 -19 -8 -43 -10 -55 -2 -12 -6 -33 -9 -47 -4 -14
-8 -37 -11 -52 -3 -15 -9 -38 -15 -52 -5 -15 -8 -26 -5 -26 2 0 -2 -18 -10
-40 -8 -22 -15 -42 -15 -45 -1 -6 -3 -14 -26 -85 -10 -30 -19 -57 -19 -60 -1
-3 -8 -21 -17 -41 -9 -20 -19 -47 -23 -60 -4 -13 -14 -36 -21 -51 -8 -15 -14
-30 -13 -33 0 -4 -7 -17 -15 -31 -9 -13 -14 -24 -10 -24 4 0 2 -6 -4 -12 -5
-7 -28 -47 -50 -88 -55 -106 -189 -321 -211 -340 -3 -3 -28 -34 -56 -70 -64
-84 -90 -113 -205 -229 -96 -97 -197 -188 -241 -219 -13 -8 -26 -19 -29 -22
-3 -3 -34 -26 -70 -51 -36 -24 -67 -47 -70 -50 -4 -5 -28 -20 -133 -83 -81
-48 -333 -172 -372 -182 -5 -2 -59 -21 -120 -42 -60 -21 -153 -49 -205 -61
-52 -13 -102 -25 -110 -28 -8 -4 -18 -5 -23 -5 -4 1 -27 -2 -52 -8 -135 -30
-303 -44 -515 -41 -178 2 -201 4 -217 14 -6 4 -15 3 -18 -3 -4 -7 -12 -7 -18
-2 -7 4 -24 8 -39 7 -16 0 -28 3 -28 8 0 4 -5 5 -10 2 -6 -4 -32 -2 -58 4 -26
6 -64 13 -84 15 -21 3 -41 7 -45 9 -4 3 -24 8 -43 11 -19 3 -50 10 -68 15 -18
5 -36 11 -40 12 -4 1 -11 3 -17 4 -38 10 -222 70 -230 75 -5 3 -28 12 -50 19
-62 21 -253 114 -351 172 -129 75 -323 211 -332 232 -2 4 -7 7 -11 7 -32 0
-367 341 -424 431 -11 16 -22 29 -27 29 -10 0 -28 48 -28 78 -1 22 29 62 45
62 5 0 24 -27 43 -60 19 -33 40 -60 45 -61 70 -6 77 -3 50 25 -8 8 -15 17 -15
21 0 3 -18 33 -40 65 -22 32 -40 63 -40 67 0 4 15 24 33 43 60 65 61 67 30 73
-24 4 -35 -3 -81 -51 -28 -31 -52 -60 -52 -64 0 -5 -4 -8 -8 -8 -5 0 -8 27 -8
59 1 53 -1 60 -21 64 -41 8 -49 -6 -48 -92 1 -45 0 -81 -1 -81 -8 0 -132 219
-179 314 -47 98 -118 270 -131 316 -2 8 -17 62 -34 120 -28 95 -46 170 -55
225 -2 11 -6 36 -10 55 -4 19 -8 49 -10 65 -2 17 -4 30 -5 30 -1 0 -3 11 -4
25 0 14 -5 30 -9 37 -4 6 -3 14 3 18 6 4 7 13 2 23 -9 17 -14 108 -15 237 0
90 12 335 17 344 3 4 7 29 11 56 15 115 52 288 74 355 5 14 15 45 22 70 7 25
17 51 22 58 5 6 7 12 4 12 -3 0 1 17 10 38 8 20 20 48 26 62 6 14 9 31 8 38
-1 6 3 12 9 12 5 0 10 7 10 15 0 23 142 307 168 333 6 7 12 20 12 28 0 8 5 14
10 14 6 0 10 7 10 15 0 8 4 15 9 15 5 0 14 14 21 30 7 17 16 30 21 30 5 0 9 7
9 15 0 8 4 15 8 15 5 0 14 10 20 23 32 67 253 317 388 437 122 109 337 269
362 270 6 0 12 3 12 8 0 4 16 16 35 26 36 20 37 25 17 91 -3 11 -6 25 -7 30
-2 22 -28 131 -33 139 -3 5 -6 21 -8 35 -1 14 -5 37 -9 51 -3 14 -8 34 -10 45
-13 55 -23 97 -29 120 -3 10 -15 69 -20 95 -1 8 -13 61 -26 117 l-24 103 -115
-61 c-63 -33 -121 -67 -128 -75 -8 -8 -18 -12 -23 -9 -5 3 -10 2 -12 -2 -1 -5
-56 -43 -120 -86 -117 -78 -274 -197 -358 -272 -106 -94 -332 -328 -409 -425
-46 -58 -91 -114 -100 -125 -35 -43 -171 -252 -171 -263 0 -7 -4 -12 -10 -12
-5 0 -10 -6 -10 -14 0 -8 -3 -16 -7 -18 -34 -15 -278 -549 -308 -673 -1 -5 -5
-17 -8 -25 -24 -57 -109 -409 -122 -505 -3 -22 -8 -51 -10 -65 -3 -14 -7 -43
-9 -65 -14 -121 -17 -155 -21 -200 -5 -63 -5 -411 -1 -445 2 -14 7 -66 11
-115 10 -116 13 -140 15 -140 1 0 3 -11 4 -25 2 -14 6 -41 9 -60 4 -19 10 -55
13 -80 4 -25 11 -56 15 -69 5 -13 7 -26 5 -29 -3 -2 1 -17 9 -32 8 -15 12 -30
9 -33 -11 -11 128 -450 175 -552 53 -115 156 -323 186 -375 72 -124 203 -323
217 -328 4 -2 8 -10 8 -17 0 -7 4 -15 8 -17 4 -1 30 -32 57 -68 28 -36 57 -72
65 -81 8 -8 40 -44 70 -80 114 -132 326 -331 469 -439 18 -14 45 -34 59 -46
26 -20 200 -139 234 -159 85 -51 246 -140 303 -167 39 -18 72 -36 75 -39 3 -4
20 -10 38 -14 17 -3 32 -11 32 -16 0 -5 6 -9 13 -9 7 0 55 -17 107 -38 101
-41 271 -100 305 -105 11 -1 26 -6 33 -10 6 -5 12 -6 12 -2 0 3 16 -2 37 -10
20 -8 51 -16 70 -18 18 -1 33 -6 33 -10 0 -4 6 -7 13 -6 6 2 26 0 42 -4 59
-14 190 -38 235 -43 19 -2 44 -5 55 -8 20 -4 141 -15 245 -22 73 -5 353 -4
410 1 169 15 245 23 245 25 0 1 16 3 35 5 19 2 49 6 65 9 17 4 46 9 65 12 30
5 223 47 270 59 85 22 136 38 147 47 7 6 13 8 13 4 0 -3 12 -1 28 5 15 6 36
13 46 15 11 2 39 13 63 24 23 11 48 20 55 20 7 1 31 9 53 20 22 11 43 19 47
20 4 0 36 14 70 30 34 17 67 30 75 30 7 0 13 5 13 10 0 6 5 10 11 10 12 0 231
116 284 150 17 11 37 23 45 27 31 15 306 209 330 233 3 3 43 37 90 76 107 90
242 223 345 339 43 50 83 91 87 93 4 2 8 10 8 17 0 7 4 15 8 17 7 3 123 152
147 190 6 8 23 35 40 59 35 53 52 79 61 99 4 8 10 17 14 20 25 20 237 439 256
505 1 6 17 46 34 90 18 44 33 85 34 90 3 12 25 84 33 105 3 8 7 20 8 25 2 6
14 53 28 105 15 52 28 106 31 120 3 14 7 36 10 50 22 103 21 97 41 223 3 17 8
55 10 82 3 28 8 79 12 115 4 36 7 111 7 167 1 57 3 103 6 103 3 0 5 24 4 53
-4 86 -15 280 -18 312 -5 41 -18 155 -22 185 -1 14 -3 25 -4 25 -1 0 -3 11 -5
25 -2 14 -6 37 -9 53 -3 15 -8 39 -11 55 -7 36 -19 90 -45 191 -12 46 -23 91
-25 100 -25 110 -136 393 -225 576 -69 140 -206 377 -222 383 -4 2 -8 8 -8 13
0 8 -76 117 -117 169 -83 105 -113 141 -143 175 -64 72 -154 168 -195 206 -22
20 -63 59 -91 86 -60 56 -93 85 -154 133 -25 19 -52 40 -60 47 -20 16 -153
115 -176 130 -80 53 -176 113 -180 113 -3 0 -18 8 -32 19 -27 19 -152 85 -204
108 -15 7 -30 9 -32 4z"/>
<path d="M2122 5335 c-9 -15 -8 -2326 2 -2332 7 -5 263 -7 417 -4 l36 1 -1
485 c-1 267 1 485 3 485 5 0 29 -30 59 -72 13 -18 40 -56 60 -84 50 -69 61
-83 147 -204 42 -58 83 -116 93 -129 9 -13 56 -78 104 -145 48 -67 91 -125 95
-131 5 -5 40 -54 78 -107 l69 -98 269 0 269 0 -7 33 c-4 17 -19 50 -34 72 -28
41 -254 355 -346 480 -28 39 -73 102 -100 140 -27 39 -55 76 -62 83 -7 8 -18
22 -23 33 -10 19 -96 136 -125 172 -8 9 -15 19 -15 22 0 3 -21 32 -46 65 l-45
60 88 127 c49 71 127 182 174 248 145 207 141 201 135 232 -11 55 -25 119 -46
208 -12 50 -24 101 -26 115 -3 14 -14 61 -24 105 -10 44 -21 93 -24 109 -3 16
-7 30 -8 32 -5 5 -22 -9 -33 -28 -5 -9 -46 -67 -90 -129 -44 -63 -82 -118 -84
-123 -2 -5 -10 -16 -18 -25 -21 -23 -123 -170 -123 -177 0 -3 -6 -11 -12 -18
-7 -8 -19 -22 -26 -32 -7 -11 -51 -73 -97 -139 -47 -66 -90 -128 -97 -139 -7
-10 -18 -24 -24 -30 -6 -6 -13 -16 -15 -22 -7 -16 -84 -124 -89 -124 -3 0 -5
224 -5 497 l0 498 -223 0 c-135 0 -226 -4 -230 -10z"/>
<path d="M5443 5342 c-7 -4 -14 -19 -17 -32 -3 -14 -8 -36 -11 -50 -3 -14 -7
-36 -10 -50 -3 -14 -9 -40 -15 -59 -5 -19 -7 -37 -5 -42 3 -4 1 -10 -4 -13 -5
-3 -12 -27 -16 -53 -5 -27 -10 -52 -11 -58 -5 -18 -15 -59 -20 -83 -2 -13 -18
-83 -35 -155 -38 -161 -39 -166 -45 -197 -3 -14 -7 -32 -9 -40 -2 -8 -4 -15
-5 -15 -1 0 -3 -12 -5 -26 -2 -14 -8 -43 -14 -65 -5 -21 -13 -53 -16 -71 -3
-18 -9 -43 -15 -57 -5 -15 -8 -26 -5 -26 2 0 -1 -15 -6 -32 -6 -18 -13 -46
-15 -63 -3 -16 -16 -75 -29 -130 -14 -55 -36 -152 -50 -215 -35 -152 -34 -151
-40 -180 -2 -14 -12 -52 -20 -85 -12 -46 -16 -115 -17 -298 0 -131 2 -241 5
-244 5 -4 295 -7 428 -4 l27 1 0 448 c1 246 1 467 1 492 l1 44 80 -114 c43
-63 85 -122 92 -130 7 -8 23 -29 35 -48 13 -18 28 -38 34 -45 5 -7 37 -50 70
-97 33 -47 65 -92 72 -100 7 -8 20 -26 29 -40 9 -14 79 -112 156 -219 l140
-194 101 1 c391 3 475 4 464 9 -7 2 -13 11 -13 19 0 8 -4 14 -10 14 -5 0 -10
6 -10 14 0 8 -4 16 -8 18 -4 2 -59 75 -122 163 -63 88 -119 165 -123 170 -8
10 -77 105 -101 140 -8 11 -42 57 -75 103 -34 45 -61 86 -61 91 0 5 -3 11 -8
13 -6 2 -102 133 -273 372 l-28 39 43 61 c38 53 207 294 236 336 28 41 100
144 114 163 27 37 210 300 236 340 14 20 28 37 33 37 4 0 7 4 7 10 0 9 63 103
85 126 5 6 19 27 30 47 11 20 23 37 27 37 5 0 8 6 8 13 0 9 -61 12 -272 12
-150 -1 -278 -4 -285 -8 -6 -4 -73 -96 -149 -205 -76 -108 -193 -276 -261
-372 -67 -96 -128 -183 -135 -194 -7 -10 -33 -46 -57 -80 -25 -33 -57 -81 -73
-105 l-28 -45 -1 37 c0 20 0 246 -1 502 0 256 -3 467 -7 469 -4 3 -12 2 -18
-2z"/>
<path d="M3311 2957 c-27 -27 0 -60 37 -46 19 7 21 12 13 28 -13 24 -36 32
-50 18z"/>
<path d="M3427 2959 c-19 -11 -22 -30 -6 -46 15 -15 49 -4 49 17 0 26 -22 40
-43 29z"/>
<path d="M2490 2882 l-46 -3 2 -142 c0 -78 2 -144 3 -147 1 -7 200 -5 206 2 3
3 2 14 -2 24 -7 16 -18 19 -73 19 l-65 0 0 40 0 39 52 1 c58 0 67 5 59 32 -5
16 -15 19 -61 18 l-55 -1 0 33 c0 36 2 37 90 35 43 -1 46 0 48 26 2 26 1 27
-56 27 -31 0 -77 -1 -102 -3z"/>
<path d="M2731 2881 c-10 -7 -15 -291 -4 -292 5 0 19 -2 32 -3 l23 -3 -5 111
-4 110 40 -97 c55 -134 62 -133 123 16 15 37 28 67 30 67 6 0 -2 -86 -10 -98
-4 -6 -3 -12 2 -12 4 0 7 -20 6 -45 -1 -25 1 -45 4 -46 40 -5 52 -5 53 0 3 17
4 278 1 287 -2 7 -17 8 -39 5 -36 -6 -38 -9 -73 -99 l-37 -94 -38 95 c-33 86
-40 95 -66 99 -16 3 -33 2 -38 -1z"/>
<path d="M3112 2876 c-7 -11 -11 -262 -5 -282 2 -6 14 -9 26 -8 12 1 25 3 30
3 4 1 7 66 7 145 l0 144 -25 4 c-14 3 -29 0 -33 -6z"/>
<path d="M3342 2879 c-39 -8 -92 -55 -92 -80 0 -10 -4 -20 -8 -23 -6 -4 -8
-61 -2 -61 1 0 3 -12 5 -28 11 -82 105 -124 207 -91 47 15 78 66 81 135 4 109
-79 173 -191 148z m95 -61 c15 -12 33 -71 28 -95 -2 -10 -4 -23 -4 -30 -2 -28
-46 -59 -80 -57 -61 3 -85 60 -66 149 9 44 83 63 122 33z"/>
<path d="M3614 2876 c-13 -10 -17 -27 -17 -69 1 -31 4 -60 8 -66 3 -6 3 -11
-2 -11 -8 0 -8 -83 0 -124 5 -24 56 -30 58 -6 3 46 -1 183 -6 191 -4 5 -2 9 3
9 4 0 16 -17 26 -37 24 -51 84 -150 102 -167 7 -8 22 -13 31 -11 10 2 23 4 28
4 7 1 10 53 10 143 l0 142 -28 7 c-23 6 -28 4 -33 -16 -3 -13 -3 -63 0 -111
l5 -87 -27 44 c-16 24 -31 51 -35 59 -4 8 -20 35 -35 59 -31 50 -61 66 -88 47z"/>
<path d="M5022 2875 c-1 -11 -3 -237 -3 -270 1 -31 60 -28 68 2 3 13 3 29 0
37 -6 14 27 66 41 66 4 0 24 -27 46 -60 21 -33 42 -60 47 -61 5 -1 18 -1 29
-1 11 0 23 0 26 1 7 1 -44 91 -63 109 -7 8 -20 26 -28 42 -14 26 -13 29 30 76
24 27 44 52 45 55 0 4 -13 9 -29 11 -25 4 -36 -3 -73 -45 -23 -27 -47 -55 -51
-63 -15 -27 -22 -14 -21 41 0 30 -2 58 -5 62 -9 12 -57 10 -59 -2z"/>
<path d="M5655 2880 l-30 -5 0 -140 c-1 -77 2 -142 6 -145 6 -4 124 -5 182 -1
13 1 17 8 15 23 -3 20 -9 23 -58 24 -30 1 -60 2 -66 3 -8 1 -12 39 -13 122 0
67 -2 122 -3 123 -2 1 -16 -1 -33 -4z"/>
<path d="M6120 2882 c-6 -2 -10 -14 -10 -27 0 -21 4 -23 45 -22 25 1 45 -2 46
-8 0 -5 1 -61 1 -122 0 -62 5 -113 9 -114 57 -7 54 -13 59 120 l5 124 44 1
c39 1 45 4 46 24 1 14 -4 22 -14 23 -83 3 -223 3 -231 1z"/>
<path d="M5327 2748 c1 -73 2 -141 2 -150 1 -16 5 -16 61 -9 3 1 5 66 5 146
l0 145 -35 0 -35 0 2 -132z"/>
<path d="M5475 2738 l0 -143 25 -7 c13 -4 29 -3 34 2 5 5 10 73 10 150 l1 140
-35 0 -35 0 0 -142z"/>
<path d="M5911 2789 c-18 -49 -34 -98 -36 -107 -2 -9 -10 -34 -19 -54 -9 -21
-16 -39 -16 -41 0 -1 14 -2 31 -2 27 1 34 6 46 37 12 29 20 37 46 39 56 7 77
0 83 -29 10 -39 21 -49 51 -46 16 1 29 2 30 3 1 1 -20 61 -52 146 -4 11 -11
31 -15 45 -4 14 -12 34 -16 45 -9 24 -11 32 -13 45 0 6 -20 10 -44 10 l-43 0
-33 -91z m88 1 c4 0 8 -6 8 -12 0 -7 3 -25 6 -40 3 -16 3 -28 -1 -29 -70 -8
-73 -4 -45 77 14 37 18 44 21 27 2 -13 7 -23 11 -23z"/>
</g>
</svg>
